<svg id="Job_Illustration" data-name="Job Illustration" xmlns="http://www.w3.org/2000/svg" xmlns:xlink="http://www.w3.org/1999/xlink" width="709.995" height="560.516" viewBox="0 0 709.995 560.516">
  <defs>
    <linearGradient id="linear-gradient" x1="0.571" y1="1.795" x2="0.493" y2="0.379" gradientUnits="objectBoundingBox">
      <stop offset="0" stop-color="#d1d7e0"/>
      <stop offset="1" stop-color="#ebebff"/>
    </linearGradient>
    <linearGradient id="linear-gradient-2" x1="0.5" y1="1.147" x2="0.5" y2="0.24" xlink:href="#linear-gradient"/>
    <linearGradient id="linear-gradient-3" y1="0.5" x2="1" y2="0.5" gradientUnits="objectBoundingBox">
      <stop offset="0" stop-color="#656565"/>
      <stop offset="0" stop-color="#7792c4"/>
      <stop offset="1" stop-color="#ededed"/>
    </linearGradient>
    <linearGradient id="linear-gradient-4" x1="0.5" y1="2.165" x2="0.5" y2="0.322" xlink:href="#linear-gradient"/>
    <linearGradient id="linear-gradient-5" x1="-34.651" y1="0.5" x2="-33.651" y2="0.5" gradientUnits="objectBoundingBox">
      <stop offset="0" stop-color="#3076a1"/>
      <stop offset="1" stop-color="#48c9b6"/>
    </linearGradient>
    <linearGradient id="linear-gradient-6" x1="-17.756" x2="-16.756" xlink:href="#linear-gradient-5"/>
    <linearGradient id="linear-gradient-7" x1="-23.761" x2="-22.761" xlink:href="#linear-gradient-5"/>
    <linearGradient id="linear-gradient-8" x1="-17.099" x2="-16.099" xlink:href="#linear-gradient-5"/>
    <linearGradient id="linear-gradient-9" x1="0.983" y1="0.961" x2="0.233" y2="0.108" xlink:href="#linear-gradient-5"/>
    <linearGradient id="linear-gradient-10" x1="0.079" y1="2.027" x2="0.485" y2="0.07" gradientUnits="objectBoundingBox">
      <stop offset="0" stop-color="#c9c4c1"/>
      <stop offset="1" stop-color="#fff6de"/>
    </linearGradient>
    <linearGradient id="linear-gradient-11" x1="-0.105" y1="0.5" x2="0.895" y2="0.5" xlink:href="#linear-gradient-10"/>
    <linearGradient id="linear-gradient-13" x1="0" y1="0.5" x2="1" y2="0.5" xlink:href="#linear-gradient"/>
  </defs>
  <path id="Rectangle_6" data-name="Rectangle 6" d="M58.669,0h61.225a58.67,58.67,0,0,1,58.67,58.67v61.225a58.669,58.669,0,0,1-58.669,58.669H58.669A58.669,58.669,0,0,1,0,119.895V58.669A58.669,58.669,0,0,1,58.669,0Z" transform="translate(257.671 78.74)" opacity="0.95" fill="url(#linear-gradient)"/>
  <rect id="Rectangle_7" data-name="Rectangle 7" width="82.672" height="4.084" transform="translate(305.617 216.65)" fill="#96bfe6"/>
  <rect id="Rectangle_8" data-name="Rectangle 8" width="59.253" height="4.084" transform="translate(317.326 229.519)" fill="#96bfe6"/>
  <rect id="Rectangle_9" data-name="Rectangle 9" width="244.385" height="286.852" rx="69.115" transform="translate(465.61 140.67)" opacity="0.95" fill="url(#linear-gradient-2)"/>
  <g id="Group_8" data-name="Group 8" transform="translate(576.417 309.895)">
    <rect id="Rectangle_10" data-name="Rectangle 10" width="19.383" height="3.59" transform="translate(0 0)" fill="#4598e6"/>
  </g>
  <g id="Group_9" data-name="Group 9" transform="translate(502.829 342.789)">
    <rect id="Rectangle_11" data-name="Rectangle 11" width="112.787" height="6.95" transform="translate(0 0)" fill="#96bfe6"/>
    <rect id="Rectangle_12" data-name="Rectangle 12" width="91.205" height="6.95" transform="translate(0 33.368)" fill="#96bfe6"/>
    <rect id="Rectangle_13" data-name="Rectangle 13" width="53.468" height="6.95" transform="translate(0 16.684)" fill="#96bfe6"/>
  </g>
  <g id="Group_10" data-name="Group 10" transform="translate(504.771 169.276)">
    <path id="Path_14" data-name="Path 14" d="M2130.246,763.9v3.51h20.668v19.4h3.51V763.9ZM1989.9,786.809h3.51v-19.4h20.668V763.9H1989.9Zm161.02,100.09v19.4h-20.668v3.51h24.178V886.9Zm-157.509,0h-3.51v22.914h24.178V906.3h-20.668Z" transform="translate(-1989.895 -763.902)" fill="#4598e6"/>
  </g>
  <g id="Group_13" data-name="Group 13" transform="translate(637.689 342.279)">
    <g id="Group_11" data-name="Group 11" transform="translate(0)">
      <path id="Path_15" data-name="Path 15" d="M2403.193,1316.279a20.67,20.67,0,1,1,20.67-20.67A20.694,20.694,0,0,1,2403.193,1316.279Zm0-37.339a16.669,16.669,0,1,0,16.669,16.669A16.688,16.688,0,0,0,2403.193,1278.94Z" transform="translate(-2382.523 -1274.94)" fill="#4598e6"/>
    </g>
    <g id="Group_12" data-name="Group 12" transform="translate(9.961 13.948)">
      <path id="Path_16" data-name="Path 16" d="M2421.338,1331l-9.39-9.391,2.829-2.829,6.562,6.562,9.2-9.2,2.829,2.829Z" transform="translate(-2411.947 -1316.143)" fill="#4598e6"/>
    </g>
  </g>
  <path id="Path_17" data-name="Path 17" d="M1169.627,1842.553c0,8.669-150.161,15.7-335.394,15.7s-335.394-7.028-335.394-15.7,150.161-15.7,335.394-15.7S1169.627,1833.884,1169.627,1842.553Z" transform="translate(-498.839 -1297.735)" fill="url(#linear-gradient-3)"/>
  <rect id="Rectangle_14" data-name="Rectangle 14" width="120.358" height="103.266" transform="translate(286.774 85.417)" opacity="0.95" fill="url(#linear-gradient-4)"/>
  <g id="Group_18" data-name="Group 18" transform="translate(286.349 70.478)">
    <path id="Path_18" data-name="Path 18" d="M1451.27,657.135c-3.964-10.486-13.487-15.3-17.982-16.8-1.6-.531-4.46-1.465-7.473-2.44-5.429-1.754-11.36-3.663-11.36-3.663h-18.733s-6.486,2.174-13.38,4.59a.006.006,0,0,1-.006.006c-6.351,2.227-13.038,4.655-15.295,5.789-4.708,2.351-12.63,19.158-14.231,21.084-.827.992-4.5,7.538-8.117,14.851h20.18c2.133-3.663,3.775-6.5,3.775-6.5s1.276,2.8,2.824,6.5h64.651c1.022-4.3,1.66-9.718,1.66-9.718s3.462,4.708,7.242,9.718h18.632C1459.126,672.95,1453.5,663.054,1451.27,657.135Z" transform="translate(-1344.693 -579.331)" fill="#0022a5"/>
    <g id="Group_14" data-name="Group 14" transform="translate(45.1 3.288)">
      <path id="Path_19" data-name="Path 19" d="M1495.441,481.909s14.647,2.307,12.417,25.224-15.157,21.038-16.022,21.015-12.978.418-13.922-27.562C1477.915,500.586,1477.5,479.9,1495.441,481.909Z" transform="translate(-1477.914 -481.771)" fill="#eea886"/>
    </g>
    <g id="Group_15" data-name="Group 15" transform="translate(74.419 21.421)">
      <path id="Path_20" data-name="Path 20" d="M1565.372,536.091s1.6-1.713,2.192.021-2.188,9.47-2.287,9.831c0,0-.293.673-.678.3S1565.372,536.091,1565.372,536.091Z" transform="translate(-1564.521 -535.336)" fill="#eea886"/>
    </g>
    <g id="Group_16" data-name="Group 16" transform="translate(43.207 21.105)">
      <path id="Path_21" data-name="Path 21" d="M1474.611,535.183s-1.571-1.744-2.193-.021,1.98,9.509,2.1,9.874c0,0,.28.678.672.315S1474.611,535.183,1474.611,535.183Z" transform="translate(-1472.322 -534.402)" fill="#eea886"/>
    </g>
    <g id="Group_17" data-name="Group 17" transform="translate(43.408)">
      <path id="Path_22" data-name="Path 22" d="M1504.773,497.75l-2.1,2.8s.059-6.146-.277-7.11-.851-3.908-1.133-4.6-12.578-4.14-23.44,1.006c0,0,.478,4.42-.563,4.813s-.53,7.2-.53,7.2l-1.724-1.946s-2.639-17.631-1.987-19.469,2.728-12.886,25.012-6.328c0,0,6.947-1.471,8.341,3.325S1504.773,497.75,1504.773,497.75Z" transform="translate(-1472.918 -472.059)" fill="#434343"/>
    </g>
    <path id="Path_23" data-name="Path 23" d="M1494.75,605.543c-.006-.021-1.879-.923-1.879-.923-.912-2.04-.235-10.649-.235-10.649s-18.655-4.748-18.122-1.117-1.607,12.066-1.607,12.066l-9.57,4.752s10.2,27.379,21.916,23.847,16.144-24.834,16.144-24.834Z" transform="translate(-1423.172 -551.056)" fill="#eea886"/>
    <path id="Path_24" data-name="Path 24" d="M1497.146,606.628a11.06,11.06,0,0,0,8.223,3.88c3.431,0,5.895-.962,9.313-4.295,0,0-1.482,6.33-9.291,6.919C1505.391,613.132,1499.729,613.852,1497.146,606.628Z" transform="translate(-1445.536 -560.797)" fill="#a77860"/>
  </g>
  <g id="Group_75" data-name="Group 75" transform="translate(225.976 205.877)">
    <g id="Group_23" data-name="Group 23" transform="translate(30.451)">
      <g id="Group_22" data-name="Group 22">
        <g id="Group_21" data-name="Group 21">
          <g id="Group_20" data-name="Group 20">
            <g id="Group_19" data-name="Group 19">
              <path id="Path_25" data-name="Path 25" d="M1283.981,874.381s10.763,5.265,8.1,19.587-3.839,16.253-.862,21.849,6.489,29.47,3.81,33.994-33.161-19.885-37.388-40.365,2.679-29.588,5.12-32.982S1274.479,869.559,1283.981,874.381Z" transform="translate(-1256.304 -872.018)" fill="#0e2d3d"/>
            </g>
          </g>
        </g>
      </g>
    </g>
    <g id="Group_24" data-name="Group 24" transform="translate(51.544 304.989)">
      <path id="Path_26" data-name="Path 26" d="M1321.134,1802.7h2.439v-11.5a32.675,32.675,0,0,1,7.787,7.6c3,4.409,7.13,4.034,13.416,3.753s6-2.814,5.442-6.38-6.943-4.691-9.007-5.254-6.749-8.635-8.256-10.6a26.942,26.942,0,0,1-3.143-5.253s-1.173-4.785-6.989,0-4.128,13.979-3.471,14.823S1321.134,1802.7,1321.134,1802.7Z" transform="translate(-1318.611 -1772.933)" fill="#222429"/>
    </g>
    <g id="Group_25" data-name="Group 25" transform="translate(54.434 305.851)">
      <path id="Path_27" data-name="Path 27" d="M1339.072,1792.6c2.158,1.408,7.787,0,7.787,0-1.595-2.064-11.4-15.855-11.4-15.855-5.957-3.472-8.312,1.306-8.312,1.306C1329.578,1778.793,1336.914,1791.192,1339.072,1792.6Z" transform="translate(-1327.148 -1775.48)" fill="#eea886"/>
    </g>
    <g id="Group_29" data-name="Group 29" transform="translate(128.777 104.261)">
      <g id="Group_28" data-name="Group 28">
        <g id="Group_27" data-name="Group 27">
          <g id="Group_26" data-name="Group 26">
            <path id="Path_28" data-name="Path 28" d="M1547.063,1186.474s3.905.749,5.239-1.087c1.135-1.561,3.729-2.758,4.527-3.129,1.067-.5,3.777-3.236,4.414-1.9s-4.249,4.733-5.132,5.649,4.792,1.322,5.771,2.212-.225,10.251-4.088,9.523-7.508-4.057-8.212-4.051a24.1,24.1,0,0,1-2.831-.419Z" transform="translate(-1546.752 -1179.997)" fill="#eea886"/>
          </g>
        </g>
      </g>
    </g>
    <g id="Group_33" data-name="Group 33" transform="translate(140.005 112.104)">
      <g id="Group_32" data-name="Group 32">
        <g id="Group_31" data-name="Group 31">
          <g id="Group_30" data-name="Group 30">
            <path id="Path_29" data-name="Path 29" d="M1582.961,1203.166s11.676,3.016,12.286,3.869.409,1.475-.694,1.239-11.366-2.589-11.366-2.589,13.22,5.893,13.872,6.482c.382.345.064,1.574-.538,1.5s-14.039-5.163-14.039-5.163,12.333,5.524,12.732,6.18a.93.93,0,0,1-1.168,1.282c-.943-.346-12.68-4.826-12.68-4.826s8.724,4.585,8.734,5.338c.006.461-.218,1.536-2.432.283s-7.748-3.662-7.748-3.662Z" transform="translate(-1579.92 -1203.166)" fill="#eea886"/>
          </g>
        </g>
      </g>
    </g>
    <g id="Group_34" data-name="Group 34" transform="translate(21.773 314.348)">
      <path id="Path_30" data-name="Path 30" d="M1231.358,1821.773h1.5v-8.444a18.367,18.367,0,0,1,3.889,6.781c1.22,4.034,5.587,5.231,12.248,5.043s6.755-2.817,6.192-6.757-6.192-6-6.192-6c-2.533-2.252-8.819-11.587-8.819-11.587a8.786,8.786,0,0,0-7.2,1.477c-3.166,2.556-2.182,8.327-2.088,9.828S1231.358,1821.773,1231.358,1821.773Z" transform="translate(-1230.671 -1800.578)" fill="#222429"/>
    </g>
    <g id="Group_35" data-name="Group 35" transform="translate(13.398 131.062)">
      <path id="Path_31" data-name="Path 31" d="M1219.59,1262.5s-7.937,10.32-10.09,22.563,1.271,53.336,1.178,59.387-5.723,21.109-4.6,32.508,5.569,68.134,5.569,68.134l12.163-2.413s-.7-57.839,0-62.624,2.116-22.226,2.4-24.2,17.867-53.7,17.867-62.531S1238.729,1248.1,1219.59,1262.5Z" transform="translate(-1205.931 -1259.166)" fill="#222429"/>
    </g>
    <g id="Group_36" data-name="Group 36" transform="translate(39.638 135.844)">
      <path id="Path_32" data-name="Path 32" d="M1310.734,1275.877s13.041,49.771,14.589,56.667,3.791,12.583,3.791,15.511c0,6.793-2.524,17.7-2.524,17.7l-16.56,79.2h-15.772s8.787-47.515,9.024-56.807c.237-9.312,7.405-22.535,6-26.476s-22.657-49.4-22.657-49.4S1270.533,1261.428,1310.734,1275.877Z" transform="translate(-1283.443 -1273.293)" fill="#222429"/>
    </g>
    <g id="Group_37" data-name="Group 37" transform="translate(24.079 314.574)">
      <path id="Path_33" data-name="Path 33" d="M1253.5,1812.833l-8.819-11.587-7.2,1.477a32.655,32.655,0,0,0,5.438,9.088C1247.063,1816.432,1253.5,1812.833,1253.5,1812.833Z" transform="translate(-1237.481 -1801.246)" fill="#eea886"/>
    </g>
    <g id="Group_39" data-name="Group 39" transform="translate(56.808 53.849)">
      <g id="Group_38" data-name="Group 38">
        <path id="Path_34" data-name="Path 34" d="M1338.9,1031.084a16.272,16.272,0,0,1,9.439,4.86,62.293,62.293,0,0,1,8.939,13.615c1.064,2.322,15.979,23.835,16.753,24.319s8.271,2.989,13.238,4.661c7.666,2.58,23.032,8.164,23.032,8.164l-3.052,9.662s-28.9-9.455-36.132-11.238c-8.849-2.18-29.22-28.314-29.22-28.314S1326.71,1039.016,1338.9,1031.084Z" transform="translate(-1334.163 -1031.084)" fill="#0022a5"/>
      </g>
    </g>
    <g id="Group_41" data-name="Group 41" transform="translate(14.833 49.712)">
      <g id="Group_40" data-name="Group 40">
        <path id="Path_35" data-name="Path 35" d="M1247.5,1019.229s6.965,3.289,9.383,3.772,11.8,12.672,13.445,17.121,0,11.124-3.386,18.958-.193,10.447-1.741,18.281-1.05,37.146-.76,41.5-45.275,10.951-54.271,3.019c0,0,6.09-26.416,13.3-33.956,1.56-1.63,1.394-12.5.331-15.2s-13.058-22.924-13.058-22.924-.881-20.5,4.353-24.569c4.546-3.531,16.936-4.789,19.161-5.563S1242.951,1018.552,1247.5,1019.229Z" transform="translate(-1210.169 -1018.865)" fill="#ffc507"/>
      </g>
    </g>
    <g id="Group_43" data-name="Group 43" transform="translate(38.92 32.509)">
      <g id="Group_42" data-name="Group 42">
        <path id="Path_36" data-name="Path 36" d="M1297.888,977.578s-.208,1.917-.448,4.509c-.092,1.025-.194,2.157-.286,3.317a78.275,78.275,0,0,0-.365,9.111s-7.24,7.253-15.468-8.464a21.6,21.6,0,0,0,.855-15.305C1279.57,961.917,1297.888,977.578,1297.888,977.578Z" transform="translate(-1281.321 -968.047)" fill="#eea886"/>
      </g>
    </g>
    <g id="Group_44" data-name="Group 44" transform="translate(72.31 74.185)">
      <path id="Path_37" data-name="Path 37" d="M1383.386,1109.787s1.742-11.587-.11-18.633c0,0,0,6.06-3.322,14.664Z" transform="translate(-1379.954 -1091.154)" fill="#183c59"/>
    </g>
    <g id="Group_45" data-name="Group 45" transform="translate(33.359 50.332)">
      <path id="Path_38" data-name="Path 38" d="M1264.894,1021.99s4.978,14.7,18.646,13.622,6.479-12.415,6.479-12.415a30.162,30.162,0,0,0-4.365-2.137c-.959-.185-15.111-.364-15.111-.364Z" transform="translate(-1264.894 -1020.695)" fill="#eea886"/>
    </g>
    <g id="Group_46" data-name="Group 46" transform="translate(58.484 52.833)">
      <path id="Path_39" data-name="Path 39" d="M1339.112,1028.084s7.159,19.8,7.159,39.984.576,53.059,3.076,63.441,9.613,42.489,9.613,42.489l5.576-2.884s-13.408-51.242-14.419-54.937.769-42.731,1.731-46,5.05-17.817,4.414-21.854c-.8-5.088-5.563-12.617-13.253-19.091Z" transform="translate(-1339.112 -1028.084)" fill="#0022a5"/>
    </g>
    <g id="Group_47" data-name="Group 47" transform="translate(5.85 51.008)">
      <path id="Path_40" data-name="Path 40" d="M1213.844,1022.691a205.853,205.853,0,0,1,6.7,32.494c2.255,18.246-6.921,102.942-13.073,122.168l-23.84-3.845s5.132-59.866,12.1-70.761,9.183-20.534,1.663-43.273,3.3-34,3.3-34S1211.754,1022.927,1213.844,1022.691Z" transform="translate(-1183.634 -1022.691)" fill="#0022a5"/>
    </g>
    <g id="Group_48" data-name="Group 48" transform="translate(0.739 92.147)">
      <path id="Path_41" data-name="Path 41" d="M1229.578,1163.491l-28.906,50.067-32.135-18.553,27.651-50.792Z" transform="translate(-1168.537 -1144.214)" fill="#616161"/>
    </g>
    <g id="Group_49" data-name="Group 49" transform="translate(4.083 96.026)">
      <path id="Path_42" data-name="Path 42" d="M1232.627,1172.793l-25.672,44.466-28.54-16.478,24.557-45.109Z" transform="translate(-1178.415 -1155.672)" fill="#fff"/>
    </g>
    <g id="Group_50" data-name="Group 50" transform="translate(36.835 99.37)">
      <path id="Path_43" data-name="Path 43" d="M1287.152,1175.332l1.8-3.121-11.538-6.662-2.253,2.861Z" transform="translate(-1275.163 -1165.549)" fill="#616161"/>
    </g>
    <g id="Group_56" data-name="Group 56" transform="translate(34.192 129.113)">
      <g id="Group_55" data-name="Group 55">
        <g id="Group_54" data-name="Group 54">
          <g id="Group_53" data-name="Group 53">
            <g id="Group_52" data-name="Group 52">
              <g id="Group_51" data-name="Group 51">
                <path id="Path_44" data-name="Path 44" d="M1280.61,1268.971a5.983,5.983,0,0,1-1.891-.272s-1.01-.586-1.752-.959a5.474,5.474,0,0,0-.586-.263,10.959,10.959,0,0,1-3.223-1.363c-1.277-.886-5.8-6.126-5.8-6.126l2.138-3.251,1.568-3.329s9.5.614,10.789,1.3a3.665,3.665,0,0,1,.355.216,13.94,13.94,0,0,1,2.011,2.057c.183.157,1.9,1.833,1.837,2.547a2.341,2.341,0,0,1-1.138,1.972,5.6,5.6,0,0,1-1.2,2.836,3.481,3.481,0,0,1-1.675,2.576S1281.666,1268.711,1280.61,1268.971Z" transform="translate(-1267.355 -1253.408)" fill="#eea886"/>
              </g>
            </g>
          </g>
        </g>
      </g>
    </g>
    <g id="Group_58" data-name="Group 58" transform="translate(0 53.555)">
      <g id="Group_57" data-name="Group 57">
        <path id="Path_45" data-name="Path 45" d="M1194.213,1030.509s-8.778-2.515-13.808,7.158-5,13.8-5.677,18.523c-.635,4.46-3.5,16.636-3.79,17.894s-6.78,16.252-3.8,21.493c2.991,5.269,33.374,20.774,33.181,21.935s5.262-11.724,5.262-11.724-12.294-6.852-14.307-8.962c-3.271-3.427-10.17-7.12-8.752-11.371,1.665-4.994,6.667-21.843,7.827-24.31S1201.613,1033.653,1194.213,1030.509Z" transform="translate(-1166.355 -1030.215)" fill="#0022a5"/>
      </g>
    </g>
    <g id="Group_63" data-name="Group 63" transform="translate(35.955 3.495)">
      <g id="Group_62" data-name="Group 62">
        <g id="Group_61" data-name="Group 61">
          <g id="Group_60" data-name="Group 60">
            <g id="Group_59" data-name="Group 59">
              <path id="Path_46" data-name="Path 46" d="M1293.175,882.8s15.628,4.911,7.144,31.881-29.827-3.125-27.594-19.557S1293.175,882.8,1293.175,882.8Z" transform="translate(-1272.563 -882.342)" fill="#eea987"/>
            </g>
          </g>
        </g>
      </g>
    </g>
    <g id="Group_68" data-name="Group 68" transform="translate(34.722 1.329)">
      <g id="Group_67" data-name="Group 67">
        <g id="Group_66" data-name="Group 66">
          <g id="Group_65" data-name="Group 65">
            <g id="Group_64" data-name="Group 64">
              <path id="Path_47" data-name="Path 47" d="M1299.509,894.3a35.255,35.255,0,0,1-20.761,8.573s-4.994,5.856-5.378,8.154c0,0-11.595-19.764,2.658-31.611S1304.748,889.421,1299.509,894.3Z" transform="translate(-1268.922 -875.943)" fill="#0e2d3d"/>
            </g>
          </g>
        </g>
      </g>
    </g>
    <g id="Group_73" data-name="Group 73" transform="translate(39.281 23.4)">
      <g id="Group_72" data-name="Group 72">
        <g id="Group_71" data-name="Group 71">
          <g id="Group_70" data-name="Group 70">
            <g id="Group_69" data-name="Group 69">
              <path id="Path_48" data-name="Path 48" d="M1287.812,946.538c-.1-1.963-1.31-6.43-4.227-5.18s.178,10.347,2.114,9.787C1285.7,951.145,1288.05,951.182,1287.812,946.538Z" transform="translate(-1282.389 -941.141)" fill="#eea987"/>
            </g>
          </g>
        </g>
      </g>
    </g>
    <g id="Group_74" data-name="Group 74" transform="translate(43.244 39.194)">
      <path id="Path_49" data-name="Path 49" d="M1305.89,995.15c-.093,1.025-.194,2.157-.286,3.317,0,0-6.9-.411-11.508-10.672C1294.395,988.243,1299.449,995.667,1305.89,995.15Z" transform="translate(-1294.095 -987.795)" fill="#a77860"/>
    </g>
  </g>
  <g id="Group_81" data-name="Group 81" transform="translate(40.152 289.378)">
    <g id="Group_76" data-name="Group 76" transform="translate(68.782 47.391)">
      <path id="Path_50" data-name="Path 50" d="M821.575,1420.951c10.021-7.047,21.748-56.157,22.448-85.409.359-14.984,4.788-21.226,8.7-26.734,3.735-5.265,6.961-9.811,5.082-20.251-3.591-19.951,5.851-28.563,5.947-28.648l-1.093-1.246c-.42.368-10.253,9.25-6.485,30.188,1.756,9.755-1.139,13.834-4.8,19-3.845,5.419-8.63,12.163-9,27.653-.751,31.392-12.741,77.761-21.744,84.093Z" transform="translate(-820.622 -1258.664)" fill="url(#linear-gradient-5)"/>
    </g>
    <g id="Group_77" data-name="Group 77" transform="translate(0 114.946)">
      <path id="Path_51" data-name="Path 51" d="M666.177,1538.625c-.946-2.144-1.924-4.361-3.033-6.7-5.724-12.084-10.8-14.073-19.2-17.37-2.053-.806-4.38-1.719-6.933-2.867-12.034-5.408-9.7-13.379-7.648-20.41.287-.984.575-1.964.823-2.935,1.058-4.136-.975-6.211-4.053-9.351a35.108,35.108,0,0,1-7.33-9.828c-2.4-5.021-1.178-7.714.273-9.088,3.053-2.894,10.092-2.361,16.738,1.268a24.2,24.2,0,0,1,5.564,4.792c4.237,4.437,9.51,9.958,22.846,10.021,7.6.036,11.769,1.085,13.927,3.51,2.448,2.75,1.987,6.869,1.348,12.569-.221,1.971-.472,4.206-.623,6.62a38.621,38.621,0,0,0,7.68,24.9c5.08,6.049,11.339,18.6,8.637,26.324-1.132,3.238-3.664,5.276-7.526,6.057a21.419,21.419,0,0,1-4.237.459C674.1,1556.589,670.69,1548.854,666.177,1538.625ZM635.022,1462.8c-5.935-3.24-12.3-3.894-14.8-1.519-1.9,1.8-1.006,4.895.082,7.17a33.23,33.23,0,0,0,7.018,9.383c3.221,3.286,5.765,5.882,4.475,10.922-.253.989-.545,1.987-.838,2.989-2.047,7-3.98,13.617,6.737,18.433,2.517,1.131,4.824,2.037,6.86,2.835,8.48,3.328,14.083,5.527,20.089,18.2,1.118,2.359,2.1,4.586,3.051,6.741,5.184,11.75,8.313,18.842,19.647,16.55,3.249-.656,5.365-2.331,6.291-4.979,2.38-6.808-3.315-18.726-8.344-24.713a39.584,39.584,0,0,1-8.063-26.064c.154-2.454.407-4.71.63-6.7.591-5.274,1.018-9.084-.939-11.283-1.789-2.01-5.7-2.921-12.7-2.954-14.04-.066-19.583-5.87-24.037-10.534a22.685,22.685,0,0,0-5.16-4.481Z" transform="translate(-617.446 -1458.216)" fill="url(#linear-gradient-6)"/>
    </g>
    <g id="Group_78" data-name="Group 78" transform="translate(12.854 128.181)">
      <path id="Path_52" data-name="Path 52" d="M712.6,1592.016l1.655-.087c-.082-1.555-2.169-38.2-16.885-48.931-16.145-11.768-21.234-24.414-23.658-32.9-2.857-10-17.4-12.675-18.013-12.784l-.288,1.632c.141.025,14.136,2.6,16.708,11.608,2.492,8.724,7.719,21.718,24.276,33.787C710.483,1554.6,712.585,1591.643,712.6,1592.016Z" transform="translate(-655.415 -1497.31)" fill="url(#linear-gradient-7)"/>
    </g>
    <g id="Group_79" data-name="Group 79" transform="translate(54.464 0)">
      <path id="Path_53" data-name="Path 53" d="M791.105,1349.8c-3.462-1.724-3.337-8.658-3.147-19.152.24-13.261.569-31.423-6.373-48.128-7.375-17.746-.8-22.932,5.563-27.948,7.124-5.618,13.852-10.923.938-34.874-5.931-11-7.814-18.44-5.926-23.415,1.866-4.917,7.1-6.833,12.645-8.862,9.568-3.5,20.413-7.471,19.012-27.722-.429-6.208.3-10.026,2.3-12.014,2.169-2.16,5.366-1.926,9.066-1.656,5.592.409,11.925.873,17.443-6.326.574-1.8,5.849-17.855,12.159-20.6a4.468,4.468,0,0,1,3.86.021h0c4.356,2.083,6.884,4.555,7.728,7.555,1.469,5.218-2.353,11.1-6.779,17.918-6.955,10.709-14.838,22.847-6.662,37.291,10.81,19.1,5.1,25.782-2.8,35.033-4.527,5.3-9.658,11.306-13.089,21.1-2.759,7.879,1.947,15.392,6.5,22.658,5.709,9.114,11.613,18.538-.817,26.716-20.551,13.521-40.847,57.656-41.049,58.1l-.084.183-.159.125c-3.786,2.967-6.542,4.384-8.618,4.384A3.769,3.769,0,0,1,791.105,1349.8Zm50.705-63.791c11.076-7.287,6.093-15.241.324-24.451-4.538-7.244-9.681-15.454-6.659-24.086,3.533-10.09,8.771-16.222,13.393-21.632,7.743-9.063,12.858-15.052,2.62-33.14-8.671-15.319-.14-28.455,6.715-39.01,4.207-6.477,7.839-12.07,6.574-16.566-.708-2.514-2.948-4.643-6.848-6.509h0a2.839,2.839,0,0,0-2.483,0c-5.855,2.55-11.23,19.548-11.284,19.719l-.043.137-.087.115c-6.081,8.036-13.228,7.513-18.971,7.092-3.432-.251-6.142-.45-7.775,1.177-1.609,1.6-2.2,5.11-1.814,10.726,1.487,21.493-10.48,25.873-20.1,29.392-5.4,1.977-10.068,3.685-11.666,7.893-1.7,4.492.15,11.5,5.835,22.041,13.575,25.176,5.977,31.168-1.371,36.962-6.146,4.847-11.952,9.425-5.059,26.011,7.075,17.025,6.743,35.386,6.5,48.794-.166,9.152-.3,16.381,2.229,17.639,1.478.736,4.305-.507,8.4-3.7C801.892,1341.052,821.331,1299.486,841.811,1286.012Z" transform="translate(-778.327 -1118.674)" fill="url(#linear-gradient-8)"/>
    </g>
    <path id="Path_54" data-name="Path 54" d="M696.846,1232.353c10.459-3.586,8.286,16.573,12.706,31.489s49.166,6.507,30.384,43.857,23.754,12.491,11.049,45.084-1.1,67.452-14.916,58.585-7.759-49.911-22.122-54.787-16.707-10.565-2.486-23.823-37.264-26.421-24.558-53.192S684.763,1236.5,696.846,1232.353Z" transform="translate(-662.042 -1193.591)" fill="url(#linear-gradient-9)"/>
    <g id="Group_80" data-name="Group 80" transform="translate(41.657 84.937)">
      <path id="Path_55" data-name="Path 55" d="M768.053,1500.27c1.315-5.58,12.548-54.682,2.067-60.618-9.238-5.231-9.01-25.578-7.569-44.792,1.276-17.009-20.568-24.958-21.5-25.288l-.554,1.562c.216.077,21.581,7.859,20.4,23.6-1.48,19.732-1.638,40.671,8.405,46.359,7.958,4.506.631,43.97-2.864,58.8Z" transform="translate(-740.498 -1369.572)" fill="#fff"/>
    </g>
    <path id="Path_56" data-name="Path 56" d="M814.9,1704l-14.933,56.655H766.593L751.66,1704Z" transform="translate(-706.224 -1505.846)" fill="url(#linear-gradient-10)"/>
    <path id="Path_57" data-name="Path 57" d="M814.9,1704s-32.875,6.173-32.875,56.655H766.593L751.66,1704Z" transform="translate(-706.224 -1505.845)" fill="url(#linear-gradient-11)"/>
  </g>
  <path id="Rectangle_15" data-name="Rectangle 15" d="M48.233,0H82.958a48.233,48.233,0,0,1,48.233,48.233V69.921a48.233,48.233,0,0,1-48.233,48.233H48.234A48.234,48.234,0,0,1,0,69.92V48.233A48.233,48.233,0,0,1,48.233,0Z" transform="translate(453.775 12.615)" opacity="0.95" fill="url(#linear-gradient-2)"/>
  <g id="Group_82" data-name="Group 82" transform="translate(513.67 108.422)">
    <rect id="Rectangle_16" data-name="Rectangle 16" width="10.405" height="1.927" fill="#4598e6"/>
  </g>
  <g id="Group_98" data-name="Group 98" transform="translate(493.892)">
    <g id="Group_85" data-name="Group 85" transform="translate(11.415)">
      <g id="Group_84" data-name="Group 84">
        <g id="Group_83" data-name="Group 83">
          <path id="Path_58" data-name="Path 58" d="M2014.452,266.14s8.383,4.6,5.722,15.923-3.673,12.814-1.511,17.388,4.063,23.742,1.757,27.248-25.691-17.1-28.29-33.593,3.251-23.491,5.325-26.105S2007.057,261.936,2014.452,266.14Z" transform="translate(-1991.477 -263.873)" fill="#344052"/>
        </g>
      </g>
    </g>
    <g id="Group_86" data-name="Group 86" transform="translate(25.994 42.194)">
      <path id="Path_59" data-name="Path 59" d="M2058.681,442.141h-8.976c-.434-4.427-.835-7.509-.753-7.965.132-.752-8.932-24.526-9.777-26.493s-4.175-7.234-4.609-12.2,6.037-6.97,6.037-6.97c8.74,1.566,11.7,13.656,11.7,13.656s3.67,24.516,5.526,31.414A43.9,43.9,0,0,1,2058.681,442.141Z" transform="translate(-2034.545 -388.512)" fill="#eea886"/>
    </g>
    <path id="Path_60" data-name="Path 60" d="M2054.459,403.865l-13.366,5.635s-12.286-30.487-1.988-27.083C2049.373,385.811,2053.991,392.19,2054.459,403.865Z" transform="translate(-2008.847 -342.111)" fill="#38d554"/>
    <g id="Group_87" data-name="Group 87" transform="translate(4.211 38.289)">
      <path id="Path_61" data-name="Path 61" d="M2008.625,414.795c-.39,3.027-1.989,13.749-1.632,16.644.06.478.258,1.577.555,3.071h-32.228c.857-3.06,1.637-5.768,2.109-7.344,1.566-5.191.066-6.58-.724-10.733-.308-1.626-1.39-4.713-2.571-8.2-.4-1.165-.8-2.379-1.192-3.6a74.262,74.262,0,0,1-2.483-11.5c-1.945-12.4,7.591-13.59,7.591-13.59,3.543-.654,9.733-2.565,9.733-2.565l9.7,2.016a10.514,10.514,0,0,1,2.269,1.34s.006,0,.006.005a17.7,17.7,0,0,1,2.181,1.912,58.57,58.57,0,0,1,5.273,7.624c.643,1.049,1.291,2.126,1.9,3.186,1.972,3.411,3.373,6.163,3.329,9.267C2012.4,405.38,2009.015,411.768,2008.625,414.795Z" transform="translate(-1970.198 -376.975)" fill="#38d554"/>
    </g>
    <path id="Path_62" data-name="Path 62" d="M2021.479,379.153s6.074,10.381,3.815,11.156-14.164-1.846-18.815-11.654C2006.48,378.655,2014.3,375.1,2021.479,379.153Z" transform="translate(-1989.986 -338.845)" fill="#eea886"/>
    <path id="Path_63" data-name="Path 63" d="M2024.6,357.883s-5.4,2.283-10.281-5.233c0,0,1.313-8.534-1.463-13.471s12.131,5.918,12.131,5.918-.241,1.018-.491,2.52c-.128.769-.259,1.663-.36,2.612-.084.791-.148,1.622-.177,2.449A13.4,13.4,0,0,0,2024.6,357.883Z" transform="translate(-1993.975 -312.834)" fill="#eea886"/>
    <path id="Path_64" data-name="Path 64" d="M1988.577,431.289c-1.111,5.713-9.08,12.87-9.08,12.87-.394-1.168-.8-2.379-1.19-3.6A52.145,52.145,0,0,0,1988.577,431.289Z" transform="translate(-1971.351 -374.613)" fill="#393d63"/>
    <g id="Group_88" data-name="Group 88" transform="translate(1.194 42.568)">
      <path id="Path_65" data-name="Path 65" d="M1975.321,408.27c-.505,2.082-2.828,23.17-2.576,23.889.148.412,1.274,5.29,2.4,10.712h-10.4c-1.065-3.494-1.7-6.394-1.543-8.036.664-7.113-1.747-29.789-1.747-29.789s-2.159-13.716,9.223-15.43c0,0,6.724.885,7.13,5.85S1975.826,406.193,1975.321,408.27Z" transform="translate(-1961.288 -389.615)" fill="#eea886"/>
    </g>
    <path id="Path_66" data-name="Path 66" d="M1958.277,408.08l14.125,3.3s11.2-21.755,1.113-25.727C1962.878,381.465,1955.727,396.213,1958.277,408.08Z" transform="translate(-1957.759 -343.945)" fill="#38d554"/>
    <g id="Group_91" data-name="Group 91" transform="translate(16.071 2.907)">
      <g id="Group_90" data-name="Group 90">
        <g id="Group_89" data-name="Group 89">
          <path id="Path_67" data-name="Path 67" d="M2022.246,273.027s12.276,4.5,4.5,25.689-23.664-3.616-21.265-16.634S2022.246,273.027,2022.246,273.027Z" transform="translate(-2005.232 -272.459)" fill="#eea987"/>
        </g>
      </g>
    </g>
    <g id="Group_94" data-name="Group 94" transform="translate(15.621 1.147)">
      <g id="Group_93" data-name="Group 93">
        <g id="Group_92" data-name="Group 92">
          <path id="Path_68" data-name="Path 68" d="M2027.743,282.465a28.138,28.138,0,0,1-16.876,6.053s-2.43,5.923-2.823,7.741c0,0-10.272-17.638,1.538-26.547S2032.1,278.77,2027.743,282.465Z" transform="translate(-2003.902 -267.262)" fill="#344052"/>
        </g>
      </g>
    </g>
    <g id="Group_97" data-name="Group 97" transform="translate(19.753 19.247)">
      <g id="Group_96" data-name="Group 96">
        <g id="Group_95" data-name="Group 95">
          <path id="Path_69" data-name="Path 69" d="M2020.344,325.155c-.006-1.569-.8-5.176-3.175-4.289s-.247,8.256,1.316,7.883C2018.485,328.749,2020.359,328.867,2020.344,325.155Z" transform="translate(-2016.107 -320.727)" fill="#eea987"/>
        </g>
      </g>
    </g>
    <path id="Path_70" data-name="Path 70" d="M2030.607,366.279c-5.769-1.6-8-7.094-8.068-7.278,4.691,6.062,8.23,5.191,8.23,5.191C2030.685,364.983,2030.679,365.477,2030.607,366.279Z" transform="translate(-2000.609 -326.797)" fill="#a77860"/>
  </g>
  <g id="Group_99" data-name="Group 99" transform="translate(475.209 33.997)">
    <path id="Path_71" data-name="Path 71" d="M1977.914,364.3v1.884h11.095v10.413h1.885V364.3Zm-75.344,12.3h1.885V366.181h11.095V364.3H1902.57Zm86.439,53.731v10.416h-11.095v1.885h12.979v-12.3Zm-84.554,0h-1.885v12.3h12.979v-1.885h-11.095Z" transform="translate(-1902.57 -364.297)" fill="#4598e6"/>
  </g>
  <g id="Group_100" data-name="Group 100" transform="translate(340.004 196.699)">
    <rect id="Rectangle_17" data-name="Rectangle 17" width="13.898" height="2.574" fill="#4598e6"/>
  </g>
  <g id="Group_101" data-name="Group 101" transform="translate(287.966 97.289)">
    <path id="Path_72" data-name="Path 72" d="M1450.107,551.257v2.517h14.82v13.909h2.517V551.257ZM1349.47,567.682h2.517V553.774h14.82v-2.517H1349.47Zm115.457,71.767v13.914h-14.82v2.517h17.336V639.449Zm-112.94,0h-2.517V655.88h17.337v-2.517h-14.82Z" transform="translate(-1349.47 -551.257)" fill="#4598e6"/>
  </g>
  <g id="Group_117" data-name="Group 117" transform="translate(505.001 121.088)">
    <g id="Group_102" data-name="Group 102" transform="translate(3.806 79.31)">
      <path id="Path_73" data-name="Path 73" d="M2150.413,946.1h-11.756c-.215-.471-.389-.88-.532-1.207-3.489-8.237-21.465-27.123-21.465-27.123v.041a.034.034,0,0,0-.01.021v.02c-.01.03-.02.051-.03.081s-.021.093-.042.154a.369.369,0,0,0-.02.1c-.01.031-.021.051-.031.082-.737,2.752-4.358,16.462-6.169,27.829H2030.81c-.184-1.054-.4-2.057-.645-2.988a64.457,64.457,0,0,1-1.535-8.226c-.01-.133-.03-.256-.041-.389-.061-.481-.113-.962-.154-1.432a75.457,75.457,0,0,1-.133-13.168c-.225.481-1.831,6.374-3.938,13.648-1.156,3.99-2.466,8.4-3.765,12.554h-18.785l23.573-68.007c.522-.409,6.64-3.366,11.1-5.494,4.553-2.169,10.047-5.351,15.009-8.072,2.537-1.392,4.932-2.65,7.009-3.6l.317-.143v-.01c3.427-1.566,5.709-2.6,5.709-2.6h.01c.082-.01.624-.062,1.484-.143,4.788-.46,19.644-1.852,24.616-2.138.409-.031.757-.041,1.023-.052a4.091,4.091,0,0,1,.5,0,62.653,62.653,0,0,1,7.715,2.64c.153.051.307.112.46.174.195.072.379.143.573.215.348.133.706.266,1.064.41.717.286,1.464.573,2.21.869.256.1.522.2.788.307,8.052,3.192,17.281,7.151,19.47,8.727,1.453,1.033,5.965,9.535,11.193,20.053C2141.266,907.265,2148.152,933.272,2150.413,946.1Z" transform="translate(-2001.815 -855.835)" fill="#decbc4"/>
    </g>
    <g id="Group_103" data-name="Group 103" transform="translate(66.202 52.603)">
      <path id="Path_74" data-name="Path 74" d="M2213.956,801.347c-.212,10.693-20.916,16.543-20.916,16.543s-8.66-10.857-6.592-11.9c.813-.409,1.142-2.029,1.243-3.846a37.591,37.591,0,0,0-.118-4.85c-.061-.757-.12-1.243-.12-1.243s2.958-3.121,6.721-6.84c6.576-6.5,15.617-14.832,15.631-11.518a2.937,2.937,0,0,1-.076.628C2208.142,785.782,2213.956,801.347,2213.956,801.347Z" transform="translate(-2186.13 -776.945)" fill="#eea886"/>
    </g>
    <g id="Group_104" data-name="Group 104" transform="translate(65.591 61.338)">
      <path id="Path_75" data-name="Path 75" d="M2204.788,802.748v0c-.041.062-.919,1.376-2.418,3.261-3.178,4-9.153,10.566-15.871,13.2a37.589,37.589,0,0,0-.118-4.85,10.8,10.8,0,0,1-2.056-.248,63.763,63.763,0,0,1,4.5-6.591l4.156-1.243Z" transform="translate(-2184.324 -802.748)" fill="#a77860"/>
    </g>
    <g id="Group_105" data-name="Group 105" transform="translate(51.629 17.564)">
      <path id="Path_76" data-name="Path 76" d="M2181.481,709.378c-1.791,3.9-3.492,6.72-3.975,7.839v0a13.843,13.843,0,0,1-2.418,3.261c-3.412,3.676-9.754,8.524-15.989,8.354a10.8,10.8,0,0,1-2.056-.248c-2.517-.55-5.49-1.72-7.126-4.922-12.916-25.289-3.565-45.968-3.565-45.968s35.317-9.987,40.843.644C2191.072,685.8,2185.689,700.223,2181.481,709.378Z" transform="translate(-2143.08 -673.442)" fill="#eea886"/>
    </g>
    <g id="Group_106" data-name="Group 106" transform="translate(50.587 0)">
      <path id="Path_77" data-name="Path 77" d="M2144.316,643.377s-3.28-.182-4.091-6.4c-.8-6.144.819-7.847.819-7.847s14.58-6.1,19.816-6.9,18.11-1.556,21.128,1.9c0,0,7.332-1.7,9.33,10.468,3.169,19.311-10.8,38.062-10.8,38.062s.119-12.616-2.663-14.287-5.183,2.3-5.183,2.3l-5.691,1.019s8.644-18.664-1.725-19.355S2150.252,644.459,2144.316,643.377Z" transform="translate(-2140.003 -621.559)" fill="#e8734d"/>
    </g>
    <g id="Group_107" data-name="Group 107" transform="translate(83.231 28.763)">
      <path id="Path_78" data-name="Path 78" d="M2236.614,711.847c.541-5.558,10.592-7.68,9.919-1.854s-5.623,11.422-7.909,11.225S2236.2,716.083,2236.614,711.847Z" transform="translate(-2236.431 -706.523)" fill="#eea886"/>
    </g>
    <g id="Group_108" data-name="Group 108" transform="translate(74.533 81.957)">
      <path id="Path_79" data-name="Path 79" d="M2278.449,894.932c-3.274-10.487-6.108-18.784-7.366-19.685-2.2-1.576-19.634-6.374-27.911-9.617-.266-.1-.532-.2-.788-.307-.747-.3-1.494-.583-2.21-.869-.358-.143-.716-.276-1.064-.41-.195-.071-.378-.143-.573-.215-.153-.062-.307-.123-.46-.174-.01.01-.021.031-.041.041a135.918,135.918,0,0,0-9.136,11.684c-8.553,12.154-19.7,31.849-17.986,50.03.552,5.832,1.228,14.211,2.363,23.614.082.747.174,1.494.277,2.251h38.592c.471-9.843,1.31-22.806,2.578-27.829.01-.03.021-.051.031-.082a.36.36,0,0,1,.02-.1c.01-.051.031-.1.041-.154.01-.03.02-.051.031-.081v-.02a.034.034,0,0,1,.01-.021s9.341,14.6,9.822,28.289h24.289C2287.78,938.558,2284.066,912.928,2278.449,894.932Z" transform="translate(-2210.738 -863.655)" fill="#222429"/>
    </g>
    <g id="Group_109" data-name="Group 109" transform="translate(0 84.403)">
      <path id="Path_80" data-name="Path 80" d="M2051.234,871s-2.916,9.7-6.681,33.917v.01c-.133.809-.256,1.637-.389,2.486-.01.092-.031.194-.041.3-.092.552-.174,1.126-.256,1.7-.01.071-.02.133-.031.2-.061.379-.123.767-.174,1.166-.143.952-.287,1.934-.43,2.927-1.412,9.883-3.295,25.588-5.208,42.347h-15.255c-.829-4.655-1.606-8.891-1.545-11.8a1.408,1.408,0,0,0-.072.195c-1.218,3.376-2.558,7.049-3.918,10.62l-.368.982h-26.294l26.192-68.518c.522-.409,7.264-4.041,11.725-6.159,4.656-2.22,10.538-4.952,15.756-7.357,2.5-1.156,4.839-2.23,6.824-3.141Z" transform="translate(-1990.573 -870.878)" fill="#222429"/>
    </g>
    <g id="Group_110" data-name="Group 110" transform="translate(74.535 81.957)">
      <path id="Path_81" data-name="Path 81" d="M2232.34,890.184l-10.078,5.689,4.307,4.389-9.454,51.012h-3.56c-1.31-10.313-2.056-19.572-2.639-25.865-2.63-28.115,25.424-59.822,27.164-61.755,1.35.511,2.8,1.074,4.307,1.668Z" transform="translate(-2210.743 -863.655)" fill="#51565c"/>
    </g>
    <g id="Group_111" data-name="Group 111" transform="translate(44.015 84.259)">
      <path id="Path_82" data-name="Path 82" d="M2137.389,870.455s-3.765,12.288-8.145,42.971c-1.412,9.873-3.3,25.588-5.217,42.347h-1.484l-1.954-48.2,4.8-5.2-4.266-5.33,9.126-23.307c2.5-1.156,4.839-2.23,6.824-3.141Z" transform="translate(-2120.589 -870.455)" fill="#51565c"/>
    </g>
    <g id="Group_112" data-name="Group 112" transform="translate(73.113 77.006)">
      <path id="Path_83" data-name="Path 83" d="M2235.811,854.1l-8.351-5.072s-.234,4.58-20.916,16.543l5.874,16.542Z" transform="translate(-2206.544 -849.028)" fill="#f5e2d9"/>
    </g>
    <g id="Group_113" data-name="Group 113" transform="translate(60.815 79.313)">
      <path id="Path_84" data-name="Path 84" d="M2177.013,855.844s.325,4.943,5.5,14.236l-11.463,14.943-.835-24.236Z" transform="translate(-2170.216 -855.844)" fill="#f5e2d9"/>
    </g>
    <g id="Group_114" data-name="Group 114" transform="translate(66.17 93.549)">
      <path id="Path_85" data-name="Path 85" d="M2193.009,897.9s2.221,8.886,1.422,11.373c0,0-4.885,1.777-8.4-.444A39.026,39.026,0,0,1,2193.009,897.9Z" transform="translate(-2186.035 -897.895)" fill="#d44040"/>
    </g>
    <g id="Group_115" data-name="Group 115" transform="translate(58.608 102.43)">
      <path id="Path_86" data-name="Path 86" d="M2175.541,945.462a223.415,223.415,0,0,0-1.473,45.815h-9.791c-.133-1.934-.256-3.949-.379-6.057-1.821-31.6,9.351-59.842,9.351-59.842l4.983-1.248S2176.625,938.1,2175.541,945.462Z" transform="translate(-2163.697 -924.13)" fill="#d44040"/>
    </g>
    <g id="Group_116" data-name="Group 116" transform="translate(26.324 124.613)">
      <path id="Path_87" data-name="Path 87" d="M2072.977,1008.5c-.373,7.583-.318,14.318-.318,14.318v.005c0,.037-.01.242-.026.581-.015-.129-.031-.255-.047-.381-1.213,3.375-2.558,7.045-3.913,10.617a113.714,113.714,0,0,1-.3-11.57c.543-21.262,7.231-32.412,7.231-32.412C2074.064,993.362,2073.328,1001.313,2072.977,1008.5Z" transform="translate(-2068.331 -989.656)" fill="#2d3133"/>
    </g>
  </g>
  <g id="Group_140" data-name="Group 140" transform="translate(381.751 205.877)">
    <g id="Group_118" data-name="Group 118" transform="translate(0 39.438)">
      <path id="Path_88" data-name="Path 88" d="M1689.2,1033.958l-31.284,17.2-31.416-49.439,38-13.2Z" transform="translate(-1626.504 -988.517)" fill="#292c47"/>
    </g>
    <g id="Group_119" data-name="Group 119" transform="translate(2.081 40.899)">
      <path id="Path_89" data-name="Path 89" d="M1691.286,1035.326l-29.256,16.081-29.38-46.234,35.534-12.343Z" transform="translate(-1632.65 -992.83)" fill="#fff"/>
    </g>
    <g id="Group_120" data-name="Group 120" transform="translate(34.336 64.473)">
      <path id="Path_90" data-name="Path 90" d="M1765.025,1072.742s-5.445-2.6-7.835-3.965-8.538-3.23-9.034-3.673-18.225-1.537-19.3-2.465-2.121,2.174,2.474,3.181,10.989,3.467,11.338,5.263-4.719,2.221-5.233,3.7.144,1.147.871,1.464,6.03-2.62,8.361-1.786,5.9-.321,7.684.291,10.478,3.536,10.478,3.536Z" transform="translate(-1727.931 -1062.468)" fill="#eea886"/>
    </g>
    <g id="Group_121" data-name="Group 121" transform="translate(5.937 64.524)">
      <path id="Path_91" data-name="Path 91" d="M1667.995,1093.966s-4.574-4.117-6.788-5.84-6.368-6.788-6.979-7.083-8.545-16.575-9.838-17.228,1.223-2.845,3.961,1.093,7.547,9.005,9.375,8.636.256-5.313,1.449-6.373,1.137-.311,1.719.25-.121,6.7,1.573,8.575,1.994,5.682,3.266,7.127,7.412,8.5,7.412,8.5Z" transform="translate(-1644.04 -1062.617)" fill="#eea886"/>
    </g>
    <g id="Group_122" data-name="Group 122" transform="translate(128.406 315.041)">
      <path id="Path_92" data-name="Path 92" d="M2005.8,1803.512s.99,6.868,1.113,7.9,11.007-.608,11.007-.608l.881-8.176S2007.165,1802.543,2005.8,1803.512Z" transform="translate(-2005.805 -1802.625)" fill="#424773"/>
    </g>
    <g id="Group_123" data-name="Group 123" transform="translate(110.516 322.488)">
      <path id="Path_93" data-name="Path 93" d="M1971.847,1825.09s-3.448,4.139-6.784,5.943-8.577,2.518-10.549,4.386c-1.424,1.348-5.186,7.151,8.667,7.034s20.531.82,22.015-1.405-2.147-16.422-2.147-16.422S1979.768,1825.805,1971.847,1825.09Z" transform="translate(-1952.959 -1824.625)" fill="#222429"/>
    </g>
    <g id="Group_124" data-name="Group 124" transform="translate(50.421 315.041)">
      <path id="Path_94" data-name="Path 94" d="M1775.445,1803.512s.99,6.868,1.113,7.9,11.008-.608,11.008-.608l.881-8.176S1776.806,1802.543,1775.445,1803.512Z" transform="translate(-1775.445 -1802.625)" fill="#424773"/>
    </g>
    <g id="Group_125" data-name="Group 125" transform="translate(26.133 322.488)">
      <path id="Path_95" data-name="Path 95" d="M1728.985,1825.09s-3.449,4.139-6.784,5.943-15.609,3.286-17.581,5.152c-1.423,1.348-3.791,6.774,15.7,6.267,13.847-.361,20.531.82,22.014-1.405s-2.147-16.422-2.147-16.422S1737.1,1825.886,1728.985,1825.09Z" transform="translate(-1703.7 -1824.625)" fill="#222429"/>
    </g>
    <g id="Group_126" data-name="Group 126" transform="translate(94.421 139.444)">
      <path id="Path_96" data-name="Path 96" d="M1930.389,1283.926s10.227,16.248,9.464,30.935,3.708,30.723,5.245,46.066c1.713,17.1,8.721,57.6,8.976,66.747s-1.088,38.365-1.088,38.365l-14.03.321s-11.784-70.792-14.835-78.015-18.186-58.719-18.694-64.5S1930.389,1283.926,1930.389,1283.926Z" transform="translate(-1905.418 -1283.926)" fill="#0022a5"/>
    </g>
    <g id="Group_127" data-name="Group 127" transform="translate(48.526 136.645)">
      <path id="Path_97" data-name="Path 97" d="M1786.877,1280.658s-7.707,40.255-8.724,49.245-1.7,43.5-2.2,49.12-3.391,73.521-6.1,81.867h17.937s13.769-49.362,13.769-72.718,10.637-50.774,17.5-66.183,22.584-15.774,26.805-44.365C1845.859,1277.625,1792.592,1271.591,1786.877,1280.658Z" transform="translate(-1769.845 -1275.658)" fill="#0022a5"/>
    </g>
    <g id="Group_128" data-name="Group 128" transform="translate(77.88 1.581)">
      <path id="Path_98" data-name="Path 98" d="M1881,877.947s-13.726-5.127-20.056,5.322-5.719,31.368,1.2,33.94,17.313,1.227,20.855-5.311,6.741-15.99,6.587-22.307S1884.608,879.771,1881,877.947Z" transform="translate(-1856.556 -876.69)" fill="#eea886"/>
    </g>
    <g id="Group_129" data-name="Group 129" transform="translate(84.554 29.551)">
      <path id="Path_99" data-name="Path 99" d="M1876.677,972.339s.571,3.706-.373,5.532,17.783,1.873,17.783,1.873a123.436,123.436,0,0,1,4.4-18.32C1901.373,953.033,1876.677,972.339,1876.677,972.339Z" transform="translate(-1876.27 -959.311)" fill="#eea886"/>
    </g>
    <g id="Group_130" data-name="Group 130" transform="translate(78.469)">
      <path id="Path_100" data-name="Path 100" d="M1886.6,903.683s-1.292,2.132-6.568,1.3-11.713-7.847-13.917-8.618-2.224-2.064-2.224-2.064l-1.379,2.015-2.34.148s2.134-6.279-1.086-8.84,3.342-20.324,20.263-14.41c0,0,13,3.582,12.524,10.974S1889.51,900,1886.6,903.683Z" transform="translate(-1858.297 -872.019)" fill="#3a3f47"/>
    </g>
    <g id="Group_131" data-name="Group 131" transform="translate(83.477 42.76)">
      <path id="Path_101" data-name="Path 101" d="M1873.088,1003.461s.06-3.488,1.641-3.823,17.452-1.86,19.393-1.1v4.063S1890.382,1004.905,1873.088,1003.461Z" transform="translate(-1873.088 -998.33)" fill="#e2d2ca"/>
    </g>
    <g id="Group_132" data-name="Group 132" transform="translate(84 16.904)">
      <path id="Path_102" data-name="Path 102" d="M1875.05,924.646c.3-1.24,3.449-4.782,4.656-.989s-1.824,8.9-3.515,8.459S1874.3,927.789,1875.05,924.646Z" transform="translate(-1874.634 -921.951)" fill="#eea886"/>
    </g>
    <g id="Group_133" data-name="Group 133" transform="translate(20.423 89.102)">
      <path id="Path_103" data-name="Path 103" d="M1686.9,1135.223a.043.043,0,0,1,.026,0C1686.815,1135.268,1686.8,1135.273,1686.9,1135.223Z" transform="translate(-1686.832 -1135.22)" fill="#323657"/>
    </g>
    <g id="Group_134" data-name="Group 134" transform="translate(20.515 47.034)">
      <path id="Path_104" data-name="Path 104" d="M1797.52,1142.072a145.191,145.191,0,0,1-22.773,4.061c-14.355,1.582-50.223-.572-50.448-2.267s7.716-63.151,7.264-66.316-.694-14.441-.694-14.441c-.177,3.09-3.325,15.711-7.125,22.591-1.373,2.486-5.979,10.277-8.2,8.5-10.745-8.579-27.384-40.909-28.439-41.181.887-.386,7.885-3.608,8.868-3.935.86-.287,8.612,7.92,13.309,13.008,2.094,2.268,3.581,3.916,3.581,3.916,1.356-3.052,6.3-22.276,7.831-28.929,3.463-15.005,2.93-15.629,2.93-15.629,10.5-3.177,26.442-9.643,26.442-9.643l21.034-.857s19.3,4.249,26.906,7.683c.721.325.724,17.222,2.7,21.652l-6.3,13.3s-3.641,26.341-4.4,38.056C1789.664,1097.021,1797.52,1142.072,1797.52,1142.072Z" transform="translate(-1687.105 -1010.954)" fill="#ffc507"/>
    </g>
    <g id="Group_135" data-name="Group 135" transform="translate(111.578 54.717)">
      <path id="Path_105" data-name="Path 105" d="M1979.513,1077.238c-.549,1.773-3.043,3.271-4.663,3.926a6.026,6.026,0,0,1-3.367.339l-.824-.152h0l-14.414-2.673s-3.154-36.323,19.691-45.025C1976.54,1033.848,1984.558,1060.974,1979.513,1077.238Z" transform="translate(-1956.097 -1033.65)" fill="#ffc507"/>
    </g>
    <g id="Group_136" data-name="Group 136" transform="translate(126.14 83.855)">
      <path id="Path_106" data-name="Path 106" d="M2003.3,1138.094h0a6.025,6.025,0,0,1-3.367.339l-.824-.152h0l1.422-18.561Z" transform="translate(-1999.111 -1119.72)" fill="#ab9546"/>
    </g>
    <g id="Group_137" data-name="Group 137" transform="translate(42.689 98.176)">
      <path id="Path_107" data-name="Path 107" d="M1756.187,1165.939l-1.762,7.461s-1.912-7.486-1.82-11.376C1754.7,1164.291,1756.187,1165.939,1756.187,1165.939Z" transform="translate(-1752.603 -1162.023)" fill="#ab9546"/>
    </g>
    <g id="Group_138" data-name="Group 138" transform="translate(106.237 4.034)">
      <path id="Path_108" data-name="Path 108" d="M1940.32,883.972s17.99-2.253.306,27.8Z" transform="translate(-1940.32 -883.934)" fill="#3a3f47"/>
    </g>
    <g id="Group_139" data-name="Group 139" transform="translate(12.633 41.873)">
      <path id="Path_109" data-name="Path 109" d="M1665.651,1003.82l-1.829-3.142,14.4-4.97,1.828,3.125Z" transform="translate(-1663.822 -995.709)" fill="#292c47"/>
    </g>
  </g>
  <g id="Group_141" data-name="Group 141" transform="translate(629.533 110.275)" opacity="0.95">
    <path id="Path_110" data-name="Path 110" d="M2474.624,609.318h10.2l-3.123-6.478h-10.2Z" transform="translate(-2433.223 -598.364)" fill="url(#linear-gradient-13)"/>
    <path id="Path_111" data-name="Path 111" d="M2460.52,609.318h2.431l-3.123-6.478H2457.4Z" transform="translate(-2423.894 -598.364)" fill="url(#linear-gradient-13)"/>
    <path id="Path_112" data-name="Path 112" d="M2359.8,592.857h41.319l-1.371-3.239h-41.319Z" transform="translate(-2358.432 -589.618)" fill="url(#linear-gradient-13)"/>
  </g>
  <g id="Group_148" data-name="Group 148" transform="translate(392.448 4.954)">
    <g id="Group_142" data-name="Group 142" transform="translate(0 0)">
      <path id="Rectangle_18" data-name="Rectangle 18" d="M2.638,0H14.871a2.638,2.638,0,0,1,2.638,2.638v0a2.637,2.637,0,0,1-2.637,2.637H2.638A2.638,2.638,0,0,1,0,2.638v0A2.638,2.638,0,0,1,2.638,0Z" fill="url(#linear-gradient-13)"/>
    </g>
    <g id="Group_143" data-name="Group 143" transform="translate(0 12.653)">
      <rect id="Rectangle_19" data-name="Rectangle 19" width="17.509" height="5.277" rx="2.638" fill="url(#linear-gradient-13)"/>
    </g>
    <g id="Group_144" data-name="Group 144" transform="translate(0 25.306)">
      <path id="Rectangle_20" data-name="Rectangle 20" d="M2.639,0H14.871a2.638,2.638,0,0,1,2.638,2.638v0a2.638,2.638,0,0,1-2.638,2.638H2.638A2.638,2.638,0,0,1,0,2.639v0A2.639,2.639,0,0,1,2.639,0Z" fill="url(#linear-gradient-13)"/>
    </g>
    <g id="Group_145" data-name="Group 145" transform="translate(24.739 0)">
      <path id="Rectangle_21" data-name="Rectangle 21" d="M2.491,0h0A2.491,2.491,0,0,1,4.982,2.491v.3a2.49,2.49,0,0,1-2.49,2.49h0A2.49,2.49,0,0,1,0,2.787v-.3A2.491,2.491,0,0,1,2.491,0Z" fill="url(#linear-gradient-13)"/>
    </g>
    <g id="Group_146" data-name="Group 146" transform="translate(24.739 12.653)">
      <path id="Rectangle_22" data-name="Rectangle 22" d="M2.49,0h0A2.491,2.491,0,0,1,4.982,2.491v.294A2.491,2.491,0,0,1,2.49,5.277h0A2.49,2.49,0,0,1,0,2.786v-.3A2.49,2.49,0,0,1,2.49,0Z" fill="url(#linear-gradient-13)"/>
    </g>
    <g id="Group_147" data-name="Group 147" transform="translate(24.739 25.306)">
      <path id="Rectangle_23" data-name="Rectangle 23" d="M2.491,0h0a2.49,2.49,0,0,1,2.49,2.49v.3a2.49,2.49,0,0,1-2.49,2.49h0A2.49,2.49,0,0,1,0,2.787v-.3A2.491,2.491,0,0,1,2.491,0Z" fill="url(#linear-gradient-13)"/>
    </g>
  </g>
  <g id="Group_149" data-name="Group 149" transform="translate(339.248 283.564)">
    <path id="Path_113" data-name="Path 113" d="M1531.877,1113.128h18.317l-5.606-11.628h-18.316Z" transform="translate(-1517.7 -1101.5)" fill="url(#linear-gradient-13)"/>
    <path id="Path_114" data-name="Path 114" d="M1506.559,1113.128h4.365l-5.606-11.628h-4.365Z" transform="translate(-1500.953 -1101.5)" fill="url(#linear-gradient-13)"/>
  </g>
</svg>
